<svg t="1751982108283" class="icon" viewBox="0 0 1024 1024" version="1.1" xmlns="http://www.w3.org/2000/svg" p-id="5341" width="200" height="200"><path d="M128 128m128 0l512 0q128 0 128 128l0 512q0 128-128 128l-512 0q-128 0-128-128l0-512q0-128 128-128Z" fill="#FF5E00" p-id="5342"></path><path d="M511.744 495.168a40.448 40.448 0 0 1-28-10.944l-141.312-127.328a21.088 21.088 0 0 1 28-31.488l141.312 127.328 141.312-127.328a21.088 21.088 0 1 1 28 31.488l-141.312 127.328a40.416 40.416 0 0 1-28 10.944z m0 33.696a40.448 40.448 0 0 0-28 10.944l-141.312 127.328a21.088 21.088 0 0 0 28 31.488l141.312-127.328 141.312 127.328a21.088 21.088 0 1 0 28-31.488l-141.312-127.328a42.528 42.528 0 0 0-28-10.944z" fill="#FFFFFF" p-id="5343"></path></svg>