<svg t="1751981420018" class="icon" viewBox="0 0 1024 1024" version="1.1" xmlns="http://www.w3.org/2000/svg" p-id="2416" width="200" height="200"><path d="M155.151515 155.151515m105.386667 0l487.408485 0q105.386667 0 105.386666 105.386667l0 487.408485q0 105.386667-105.386666 105.386666l-487.408485 0q-105.386667 0-105.386667-105.386666l0-487.408485q0-105.386667 105.386667-105.386667Z" fill="#DD3926" p-id="2417"></path><path d="M280.296727 293.469091h105.386667V504.242424h-105.386667V293.469091z m480.822303 0c-0.810667 107.42303-2.97503 177.683394-6.489212 210.773333-5.275152 49.636848-25.022061 108.633212-61.156848 155.132121-24.087273 30.999273-64.954182 62.801455-122.596849 95.410425l-41.580606-95.410425c39.117576-28.377212 64.930909-49.349818 77.44-62.917818 18.761697-20.355879 32.139636-35.684848 42.507637-92.214303 6.912-37.686303 9.076364-107.946667 6.49309-210.773333h105.386667z m-191.010909 0V504.242424h-105.386666V293.469091h105.386666z" fill="#FFFFFF" p-id="2418"></path></svg>